<?xml version="1.0" encoding="UTF-8"?>
<svg id="Ebene_1" data-name="Ebene 1" xmlns="http://www.w3.org/2000/svg" width="100" height="100" xmlns:xlink="http://www.w3.org/1999/xlink" viewBox="0 0 100 100">
  <defs>
    <style>
      .cls-1 {
        fill: url(#Unbenannter_Verlauf_8);
      }

      .cls-2 {
        fill: #294156;
      }

      .cls-3 {
        fill: url(#Unbenannter_Verlauf_3);
      }

      .cls-4 {
        fill: #1b323f;
      }

      .cls-5 {
        fill: url(#Unbenannter_Verlauf_7);
      }

      .cls-6 {
        fill: none;
      }

      .cls-7 {
        fill: url(#Unbenannter_Verlauf_6);
      }

      .cls-8 {
        fill: url(#Unbenannter_Verlauf_5);
      }

      .cls-9 {
        clip-path: url(#clippath-1);
      }

      .cls-10 {
        fill: #35c5c1;
      }

      .cls-11 {
        fill: url(#Unbenannter_Verlauf_4);
      }

      .cls-12 {
        fill: url(#Unbenannter_Verlauf);
      }

      .cls-13 {
        fill: #00aab5;
      }

      .cls-14 {
        clip-path: url(#clippath);
      }

      .cls-15 {
        fill: url(#Unbenannter_Verlauf_2);
      }

      .cls-16 {
        fill: #fdfdfd;
      }
    </style>
    <linearGradient id="Unbenannter_Verlauf" data-name="Unbenannter Verlauf" x1="62.68" y1="5028.38" x2="63.52" y2="5090.47" gradientTransform="translate(0 -4996)" gradientUnits="userSpaceOnUse">
      <stop offset="0" stop-color="#5be4d0"/>
      <stop offset=".91" stop-color="#02a4af"/>
    </linearGradient>
    <linearGradient id="Unbenannter_Verlauf_2" data-name="Unbenannter Verlauf 2" x1="36.32" y1="5018.17" x2="36.05" y2="5104.72" gradientTransform="translate(0 -4996)" gradientUnits="userSpaceOnUse">
      <stop offset="0" stop-color="#39556d"/>
      <stop offset=".45" stop-color="#172e3e"/>
    </linearGradient>
    <clipPath id="clippath">
      <path class="cls-6" d="M48.59,21.94c-.27,1.07-2.63,2.32-3.79,2.03-.12.12.17,2.89.34,3.18.34.6,3.5,1.91,3.43,3.2v28.15c-.79,2.71-1.21,4.65-3.52,6.49-3.23,2.57-4.41,3.29-4.59,4.63-.07.53.04,1.33.94,2.41-3.41-.36-6.06,1.57-6.37,3.71-.25,1.75,1.12,3.23,1.41,3.52-.6.78-.66,1.85-.17,2.68.53.89,1.61,1.33,2.64,1.06,0,1.92.6,2.77,1.09,3.19,1.66,1.42,6.12,1.38,7.62,1.7.17.04.5.12.72.39.21.26.23.57.24.71.04.66.06,3.37.04,7.07-.02.09-.07.2-.16.3-.29.33-.77.27-.82.27-.42,0-.97-.03-1.61-.09-9.48-.93-21.38-9.25-22.38-20.97-.56-6.54,2.51-14.53,9.13-16.87,3.83-1.35,9.02.73,11.15-4.02.67-1.49.79-2.05,1.62-3.53,1.66-2.98-.86-3.21-1.26-4.62-.48-1.68.29-2.63-1.54-4.14-2.91-2.41-6.47-.98-10.08-3.2-12.84-7.88-7.65-25.88,3.73-32.41,1.58-.9,3.98-1.98,5.88-2.52.92-.26,6.29-1.73,6.29-.21v17.88h0ZM39.84,16.17c-3.58.81-1.35,6.98,2.22,4.93,2.72-1.56.91-5.63-2.22-4.93Z"/>
    </clipPath>
    <clipPath id="clippath-1">
      <path class="cls-6" d="M51.3,3.79c.15-.48,1.05-.43,1.48-.41,12.78.68,25.98,15.26,21.22,28.25-1.16,3.18-4.46,7.04-7.61,8.37-3.14,1.32-6.81.02-9.37,2.55-1.02,1.01-1.08,2.36-1.6,3.55-.7,1.62-1.98,2.42-1.28,4.7.13.42,1.58,3.2,1.9,3.79,2.94,5.37,8.02,2.21,12.58,5.03,5.49,3.39,7.48,9.48,7.08,15.7-.72,11.03-12.65,20.43-23.21,21.23-.35.03-1.45.08-1.45-.38v-7.04c0-1.51,2.33-1.04,3.33-1.28,1.87-.45,7.03-5.48,8.05-7.12,2.33-3.71,2.29-7.97-.55-11.38-3.37-4.04-9.45-3.09-10.5-9.28l-.08-29.2c.44-1.87,2.65-3.97,2.45-5.95-.07-.73-2.44-2.1-2.44-2.71V3.78h0ZM60.96,20.63c2.9-2.93-2.7-6.43-4.04-3.36-1.4,3.19,1.88,5.54,4.04,3.36Z"/>
    </clipPath>
    <radialGradient id="Unbenannter_Verlauf_3" data-name="Unbenannter Verlauf 3" cx="52.83" cy="5070.22" fx="52.83" fy="5070.22" r="7.54" gradientTransform="translate(0 -4996)" gradientUnits="userSpaceOnUse">
      <stop offset="0" stop-color="#5be4d0"/>
      <stop offset=".53" stop-color="#2ac0bd"/>
      <stop offset="1" stop-color="#02a4af"/>
    </radialGradient>
    <linearGradient id="Unbenannter_Verlauf_4" data-name="Unbenannter Verlauf 4" x1="20.16" y1="5038.91" x2="35.48" y2="5038.91" gradientTransform="translate(0 -4996)" gradientUnits="userSpaceOnUse">
      <stop offset="0" stop-color="#20b1e6"/>
      <stop offset="1" stop-color="#02a4af"/>
    </linearGradient>
    <linearGradient id="Unbenannter_Verlauf_5" data-name="Unbenannter Verlauf 5" x1="19.83" y1="2528.13" x2="43.54" y2="2558.18" gradientTransform="translate(0 -2498)" gradientUnits="userSpaceOnUse">
      <stop offset=".12" stop-color="#35c5c1"/>
      <stop offset=".34" stop-color="#33c3c0"/>
      <stop offset=".42" stop-color="#2cbfbd"/>
      <stop offset=".47" stop-color="#20b7b9"/>
      <stop offset=".52" stop-color="#0facb3"/>
      <stop offset=".55" stop-color="#02a4af"/>
    </linearGradient>
    <linearGradient id="Unbenannter_Verlauf_6" data-name="Unbenannter Verlauf 6" x1="-27.58" y1="-2877.98" x2="-16.73" y2="-2877.98" gradientTransform="translate(-2855.34 111.14) rotate(89.2)" gradientUnits="userSpaceOnUse">
      <stop offset="0" stop-color="#20b1e6"/>
      <stop offset="1" stop-color="#02a4af"/>
    </linearGradient>
    <linearGradient id="Unbenannter_Verlauf_7" data-name="Unbenannter Verlauf 7" x1="91.82" y1="5045" x2="95.76" y2="5045" gradientTransform="translate(0 -4996)" gradientUnits="userSpaceOnUse">
      <stop offset="0" stop-color="#5be4d0"/>
      <stop offset=".71" stop-color="#0babb2"/>
      <stop offset=".8" stop-color="#02a4af"/>
    </linearGradient>
    <linearGradient id="Unbenannter_Verlauf_8" data-name="Unbenannter Verlauf 8" x1="-5191.49" y1="2547.08" x2="-5147.38" y2="2547.08" gradientTransform="translate(-5087.3 -2498) rotate(-180) scale(1 -1)" gradientUnits="userSpaceOnUse">
      <stop offset="0" stop-color="#68e2cf"/>
      <stop offset=".27" stop-color="#65e0cd"/>
      <stop offset=".46" stop-color="#5bdac8"/>
      <stop offset=".63" stop-color="#4cd0c1"/>
      <stop offset=".79" stop-color="#36c2b6"/>
      <stop offset=".93" stop-color="#19b0a8"/>
      <stop offset="1" stop-color="#09a6a0"/>
    </linearGradient>
  </defs>
  <g id="Figur">
    <g id="Figure">
      <path id="Fill_R" data-name="Fill R" class="cls-12" d="M51.3,3.79c.15-.48,1.05-.43,1.48-.41,12.78.68,25.98,15.26,21.22,28.25-1.16,3.18-4.46,7.04-7.61,8.37-3.14,1.32-6.81.02-9.37,2.55-1.02,1.01-1.08,2.36-1.6,3.55-.7,1.62-1.98,2.42-1.28,4.7.13.42,1.58,3.2,1.9,3.79,2.94,5.37,8.02,2.21,12.58,5.03,5.49,3.39,7.48,9.48,7.08,15.7-.72,11.03-12.65,20.43-23.21,21.23-.35.03-1.45.08-1.45-.38v-7.04c0-1.51,2.33-1.04,3.33-1.28,1.87-.45,7.03-5.48,8.05-7.12,2.33-3.71,2.29-7.97-.55-11.38-3.37-4.04-9.45-3.09-10.5-9.28l-.08-29.2c.44-1.87,2.65-3.97,2.45-5.95-.07-.73-2.44-2.1-2.44-2.71V3.78h0ZM60.96,20.63c2.9-2.93-2.7-6.43-4.04-3.36-1.4,3.19,1.88,5.54,4.04,3.36Z"/>
      <path id="Fill_L" data-name="Fill L" class="cls-15" d="M48.59,21.94c-.27,1.07-2.63,2.32-3.79,2.03-.12.12.17,2.89.34,3.18.34.6,3.5,1.91,3.43,3.2v28.15c-.79,2.71-1.21,4.65-3.52,6.49-3.23,2.57-4.41,3.29-4.59,4.63-.07.53.04,1.33.94,2.41-3.41-.36-6.06,1.57-6.37,3.71-.25,1.75,1.12,3.23,1.41,3.52-.6.78-.66,1.85-.17,2.68.53.89,1.61,1.33,2.64,1.06,0,1.92.6,2.77,1.09,3.19,1.66,1.42,6.12,1.38,7.62,1.7.17.04.5.12.72.39.21.26.23.57.24.71.04.66.06,3.37.04,7.07-.02.09-.07.2-.16.3-.29.33-.77.27-.82.27-.42,0-.97-.03-1.61-.09-9.48-.93-21.38-9.25-22.38-20.97-.56-6.54,2.51-14.53,9.13-16.87,3.83-1.35,9.02.73,11.15-4.02.67-1.49.79-2.05,1.62-3.53,1.66-2.98-.86-3.21-1.26-4.62-.48-1.68.29-2.63-1.54-4.14-2.91-2.41-6.47-.98-10.08-3.2-12.84-7.88-7.65-25.88,3.73-32.41,1.58-.9,3.98-1.98,5.88-2.52.92-.26,6.29-1.73,6.29-.21v17.88h0ZM39.84,16.17c-3.58.81-1.35,6.98,2.22,4.93,2.72-1.56.91-5.63-2.22-4.93Z"/>
      <g id="Shadow_L" data-name="Shadow L">
        <g class="cls-14">
          <path class="cls-4" d="M33.96,40.53c1.09.13,6.42.89,9.44,5.42.96,1.44,1.43,2.88,1.67,4.01-4.13,2.33-8.25,4.65-12.38,6.98,4.72,1.87,9.51,1.24,12.16-1.58,2.35-2.5,2.19-5.86,2.2-6.71.04-8.77-13.59-14.58-13.59-14.58,0,0-10.86-4.94-8.19-11.91.24-.63.21-1.38.21-1.38,0,0-.71,4.49-1.33,8.47,1.68,2.85,3.36,5.7,5.03,8.55,1.59.91,3.18,1.82,4.77,2.73h0Z"/>
        </g>
      </g>
      <g id="Shadow_R" data-name="Shadow R">
        <g class="cls-9">
          <path class="cls-13" d="M58.7,49.36c2.31,2.67,4.63,5.35,6.94,8.02-4.11,1.28-8.2.53-10.6-2.02-2.35-2.49-2.19-5.81-2.2-6.71-.04-8.77,13.59-14.58,13.59-14.58,0,0,10.86-4.94,8.19-11.91-.23-.6-.37-1.3-.21-1.38.6-.3,7.63,6.79,5.78,12.68-1.12,3.57-5.3,6.04-10.22,6.64-3.76,3.08-7.52,6.17-11.28,9.25Z"/>
        </g>
      </g>
    </g>
    <g id="Hand">
      <path class="cls-2" d="M53.42,82.51c.76.02,1.28.69,1.18,1.3-.08.51-.6.93-1.22.91-3.61-.02-7.23-.05-10.84-.07-.58-.11-.99-.63-.94-1.19.04-.49.42-.92.93-1.01,3.63.02,7.26.04,10.89.07h0Z"/>
      <path class="cls-3" d="M58.98,69.91c.58.53,2.13,1.97,2.51,4.31.18,1.08.03,2.26-.54,3.7-.15.38-1.26,2.39-1.4,2.39-.62.02-.82-1.22-2.04-2.85-1.01-1.34-1.61-1.48-3.1-2.87-.88-.82-2.08-2.09-3.3-3.96l-5.58-.03c-.96-.04-1.57-.87-1.43-1.53.11-.52.67-.96,1.36-.97l11.13.28c.61.25,1.5.71,2.39,1.52h0Z"/>
      <path class="cls-2" d="M57,79.92c-.78-1.51-1.85-2.04-4.42-3.73-3.49-2.29-3.5-2.63-4.77-2.96-.48-.13-.34-.04-4.3-.13-2.96-.07-4.54-.15-4.97.68-.25.48,0,.98-.48,1.48-.38.39-.79.35-1.02.8-.19.37-.08.76-.05.86.19.64.98,1.1,1.95,1.11,3.89.07,7.78.13,11.68.19.38-.02.7.28.69.65,0,.35-.31.64-.68.63-1.13,0-2.26-.02-3.39-.02-2.76-.01-5.53-.02-8.29-.03-.09.03-.94.36-.96.87-.01.45.64.78.93.93,2.1,1.07,5.93.04,8.32.06.32,0,5.81.04,6.13.04,1.02.72,1.93.91,2.45.97.57.07,1.25.14,1.57-.24.47-.57-.19-1.81-.37-2.16h0ZM48.24,75.4c-1.37,0-2.74,0-4.12.01l-3.64-.02c-.19,0-.32-.16-.3-.31.02-.13.15-.24.31-.23,1.21,0,2.43,0,3.64,0,1.37,0,2.74.02,4.12.03.21-.02.35.14.35.28,0,.13-.17.27-.36.24h0Z"/>
    </g>
    <g id="Eyes">
      <path class="cls-16" d="M39.84,16.17c3.13-.71,4.94,3.37,2.22,4.93-3.58,2.05-5.81-4.12-2.22-4.93Z"/>
      <path class="cls-16" d="M60.96,20.63c-2.16,2.19-5.44-.17-4.04-3.36,1.34-3.07,6.95.43,4.04,3.36Z"/>
    </g>
  </g>
  <g id="BG_L" data-name="BG L">
    <path class="cls-10" d="M5.05,64.53c-1.61-1.06-.57-4.78,2.09-3.58,2.48,1.12.32,5.16-2.09,3.58Z"/>
    <path class="cls-11" d="M20.16,39.38v-2.58c5.1,4.08,10.21,8.16,15.31,12.24h-3.25c-4.02-3.22-8.04-6.44-12.06-9.66Z"/>
    <path class="cls-2" d="M17.89,56.05c-2.59,2.18-5.17,4.36-7.76,6.54.05.27.08.7-.02,1.19-.2.98-.81,1.57-1.07,1.83-.13.14-1.85,1.83-4,1.23-1.8-.5-2.99-2.35-2.87-4.2.15-2.18,2.09-3.76,4.04-3.86,1.7-.09,2.91.98,3.19,1.23,2.77-2.22,5.53-4.43,8.3-6.65h21.9c.72,0,1.31.56,1.36,1.23.06.73-.52,1.41-1.3,1.46-3.65,0-7.31,0-10.96,0-3.25,3.28-6.5,6.55-9.75,9.82-.13,3.95-.27,7.89-.4,11.84.44.25,1.75,1.07,2.17,2.6.65,2.39-1.14,5.59-3.72,5.69-2.26.08-4.45-2.25-4.19-4.69.17-1.65,1.43-3.09,3.19-3.65l.24-12.11c2.92-3.17,5.84-6.34,8.76-9.51h-7.1,0ZM5.05,64.53c2.41,1.58,4.57-2.45,2.09-3.58-2.66-1.21-3.7,2.52-2.09,3.58ZM16.28,80.1c-1.44.43-1.7,2.45-.08,3.22,2.95,1.4,3.26-4.18.08-3.22Z"/>
    <path class="cls-8" d="M17.97,29.24c.05,1.83.1,3.66.15,5.5,5.56,4.59,11.12,9.17,16.68,13.76h-4.36c-5.13-4.19-10.25-8.39-15.38-12.58-.07-2.27-.14-4.54-.21-6.82-3.39-.35-5.84-3.22-5.71-6.27.16-3.47,3.59-5.71,6.7-5.63,3.28.08,6.43,2.73,6.46,6.12.02,2.52-1.7,4.91-4.33,5.93Z"/>
    <path class="cls-16" d="M5.18,47.04c2.03-.37,3.3,2.64,1.25,3.71-2.41,1.27-4.13-3.18-1.25-3.71Z"/>
    <path class="cls-16" d="M15.61,25.92c-1.79-.9-2.87-2.25-2.69-3.43.01-.09.18-1.12.97-1.36.56-.17,1.25.13,1.71.75.53-.67,1.31-.97,1.93-.75.64.22.93.92.99,1.35.18,1.18-.98,2.57-2.91,3.44h0Z"/>
    <path class="cls-16" d="M16.28,80.1c3.18-.96,2.87,4.62-.08,3.22-1.62-.77-1.36-2.79.08-3.22Z"/>
    <path class="cls-7" d="M10.65,50.98c-.02.16-.05.37-.13.61-.6,1.82-3.13,3.02-5.22,2.86-2.54-.2-5.43-2.42-5.3-5.65.12-2.86,2.55-5.2,5.43-5.19,2.62,0,4.93,1.96,5.37,4.64,10.64.08,21.28.16,31.92.24.78.01,1.39.66,1.38,1.39-.01.66-.54,1.25-1.25,1.33-10.74-.08-21.48-.15-32.21-.23h0ZM5.18,47.04c-2.88.53-1.16,4.98,1.25,3.71,2.04-1.07.78-4.09-1.25-3.71Z"/>
    <path class="cls-2" d="M24.68,90.27c-2.31,2.31-4.99-1.55-2.7-3.45,2.34-1.95,4.48,1.67,2.7,3.45Z"/>
    <path class="cls-2" d="M8.92,36.85c-2.31,2.31-4.99-1.55-2.7-3.45,2.34-1.95,4.48,1.67,2.7,3.45Z"/>
    <path class="cls-2" d="M93.04,36.85c-2.31,2.31-4.99-1.55-2.7-3.45,2.34-1.95,4.48,1.67,2.7,3.45Z"/>
  </g>
  <g id="BG_R" data-name="BG R">
    <path class="cls-2" d="M70.71,48.64c3.42-3.83,6.83-7.66,10.25-11.49v-10.47c-.42-.21-1.21-.67-1.71-1.58-.95-1.7-.59-4.39,1.28-5.48,1.07-.63,2.5-.71,3.56-.2,1.97.95,2.81,3.61,1.84,5.47-.7,1.34-2.1,1.79-2.46,1.89.02,3.68.04,7.35.05,11.03-3.17,3.61-6.34,7.22-9.51,10.83h-3.29,0ZM81.19,24.35c1.24,1.54,4.18-.34,2.74-2.34-1.61-2.23-4.23.49-2.74,2.34Z"/>
    <path class="cls-10" d="M94.51,61.48c1.8,1.96-1.05,4.65-2.9,2.77-1.71-1.74,1.07-4.77,2.9-2.77Z"/>
    <path class="cls-16" d="M92.51,50.49c-2.29-2.28,1.74-5.2,3.11-2.43,1.08,2.19-1.56,3.98-3.11,2.43Z"/>
    <path class="cls-2" d="M73.93,55.93c1.42,1.47,2.85,2.95,4.29,4.43,1.56,1.6,3.12,3.19,4.68,4.76,0,2.1.02,4.2.02,6.3.01,2.08.02,4.16.03,6.24.06.63-.06.83-.18.89-.22.11-.43-.24-.9-.26-.54-.02-.8.44-1.07.32-.14-.06-.27-.26-.25-.88-.05-1.99-.09-3.98-.13-5.99-.04-1.96-.07-3.9-.1-5.85-1.53-1.59-2.8-2.83-3.67-3.64-.56-.53-1.08-1.05-2.44-2.42-1-1-2.34-2.36-3.97-4.01.68-.5,1.06-.52,1.3-.41.35.15.41.59.68.59.3,0,.37-.54.73-.63.18-.05.49,0,1,.57h0Z"/>
    <path class="cls-2" d="M77.99,86.94c1.03.87.95,3.54-.66,3.92-5.13,1.21-2.91-6.93.66-3.92Z"/>
    <path class="cls-5" d="M92.51,50.49c1.56,1.55,4.19-.25,3.11-2.43-1.37-2.76-5.4.16-3.11,2.43Z"/>
    <path class="cls-10" d="M80.69,78.19c1.59-.78,3.23.18,3.44.31,1.25.75,1.65,1.95,1.71,2.17.07.23.31,1.57-.18,2.82-1.11,2.83-5.22,2.7-6.59.31-.73-1.27-.44-2.93.03-3.89.19-.39.61-1.25,1.58-1.72h0Z"/>
    <path id="_55" data-name=" 55" class="cls-16" d="M82,80.14c3.18-.96,2.87,4.62-.08,3.22-1.62-.77-1.36-2.79.08-3.22Z"/>
    <path class="cls-1" d="M89.38,51.26c.02.09.05.22.09.37.59,1.79,3.12,3.02,5.22,2.86,2.54-.2,5.43-2.42,5.3-5.65-.12-2.82-2.51-5.23-5.43-5.19-2.73.03-5.06,2.19-5.3,4.99-10.7-.05-21.41-.11-32.11-.16-.76.08-1.31.74-1.27,1.45.04.64.56,1.19,1.24,1.27,10.75.02,21.5.05,32.25.07h0Z"/>
    <path class="cls-16" d="M93.95,47.08c2.03-.37,3.3,2.64,1.25,3.71-2.41,1.27-4.13-3.18-1.25-3.71Z"/>
    <path class="cls-10" d="M71.28,56.05c-3.42.01-6.85.02-10.27.03-.72-.23-1.15-.92-1.04-1.58.08-.52.49-.95,1.03-1.11h19.58c2.42,1.96,4.84,3.91,7.26,5.87.33.23.67.49,1.02.76.25.2.49.39.71.58-.19.98-.38,1.96-.56,2.94-.41-.4-.82-.79-1.22-1.19-.66-.63-1.5-1.44-1.6-1.54-1.22-1.16-5.23-4.29-5.93-4.83-2.13.02-4.26.03-6.39.05-.86,0-1.72,0-2.58.01h0Z"/>
    <path class="cls-2" d="M89.55,60.57c.25-.33.88-1.14,1.96-1.58,1.69-.69,3.78-.17,4.86,1.32,2.92,4.03-2,8.77-6.09,5.82-.33-.24-.79-.74-1.04-1.19-.2-.37-.57-.92-.64-1.65-.14-1.27.61-2.26.95-2.71h0ZM94.51,61.48c-1.83-2-4.62,1.03-2.9,2.77,1.85,1.88,4.7-.81,2.9-2.77Z"/>
  </g>
</svg>