<svg xmlns="http://www.w3.org/2000/svg" viewBox="0 0 64 64" role="img" aria-labelledby="title desc">
  <title id="title">Blink skill logo</title>
  <desc id="desc">A stylized blue home camera mark for the Blink skill.</desc>
  <rect width="64" height="64" rx="14" fill="#0f172a"/>
  <path d="M15 21c0-2.2 1.8-4 4-4h20c2.2 0 4 1.8 4 4v2.8l9.1-5.3c1.3-.8 2.9.2 2.9 1.7v23.6c0 1.5-1.6 2.5-2.9 1.7L43 40.2V43c0 2.2-1.8 4-4 4H19c-2.2 0-4-1.8-4-4V21Z" fill="#38bdf8"/>
  <circle cx="29" cy="32" r="10" fill="#e0f2fe"/>
  <circle cx="29" cy="32" r="5.5" fill="#0284c7"/>
  <path d="M20 12h18c6.8 0 12.8 4.3 15 10.7" fill="none" stroke="#7dd3fc" stroke-width="3" stroke-linecap="round"/>
  <path d="M26 53h13c5.3 0 10-3.1 12.1-7.9" fill="none" stroke="#7dd3fc" stroke-width="3" stroke-linecap="round"/>
</svg>
