<svg xmlns="http://www.w3.org/2000/svg" viewBox="0 0 512 512" role="img" aria-label="LM Studio">
  <defs>
    <linearGradient id="lmstudio-bg" x1="84" y1="37" x2="426" y2="473" gradientUnits="userSpaceOnUse">
      <stop offset="0" stop-color="#6f7df1"/>
      <stop offset="0.53" stop-color="#5c3de1"/>
      <stop offset="1" stop-color="#4c0fcb"/>
    </linearGradient>
  </defs>
  <rect width="512" height="512" rx="108" fill="url(#lmstudio-bg)"/>
  <g opacity=".72" fill="#b5a9f3">
    <rect x="68" y="91" width="290" height="43" rx="21.5"/>
    <rect x="156" y="150" width="290" height="43" rx="21.5"/>
    <rect x="105" y="208" width="290" height="43" rx="21.5"/>
    <rect x="40" y="269" width="291" height="43" rx="21.5"/>
    <rect x="105" y="327" width="290" height="43" rx="21.5"/>
    <rect x="245" y="385" width="214" height="43" rx="21.5"/>
  </g>
  <g fill="#f2f1ff" opacity=".95">
    <rect x="68" y="91" width="223" height="43" rx="21.5"/>
    <rect x="156" y="150" width="223" height="43" rx="21.5"/>
    <rect x="105" y="208" width="222" height="43" rx="21.5"/>
    <rect x="40" y="269" width="223" height="43" rx="21.5"/>
    <rect x="105" y="327" width="222" height="43" rx="21.5"/>
    <rect x="245" y="385" width="146" height="43" rx="21.5"/>
  </g>
  <g fill="#fff" opacity=".22">
    <rect x="135" y="91" width="156" height="43" rx="21.5"/>
    <rect x="224" y="150" width="155" height="43" rx="21.5"/>
    <rect x="173" y="208" width="154" height="43" rx="21.5"/>
    <rect x="108" y="269" width="155" height="43" rx="21.5"/>
    <rect x="173" y="327" width="154" height="43" rx="21.5"/>
    <rect x="312" y="385" width="79" height="43" rx="21.5"/>
  </g>
</svg>
